<svg width="480" height="160" viewBox="0 0 480 160" fill="none" xmlns="http://www.w3.org/2000/svg">
<path d="M59.2727 69.8182L49.6364 72.5455C49.0303 70.9394 48.1364 69.3788 46.9545 67.8636C45.803 66.3182 44.2273 65.0455 42.2273 64.0455C40.2273 63.0455 37.6667 62.5455 34.5455 62.5455C30.2727 62.5455 26.7121 63.5303 23.8636 65.5C21.0455 67.4394 19.6364 69.9091 19.6364 72.9091C19.6364 75.5758 20.6061 77.6818 22.5455 79.2273C24.4848 80.7727 27.5152 82.0606 31.6364 83.0909L42 85.6364C48.2424 87.1515 52.8939 89.4697 55.9545 92.5909C59.0152 95.6818 60.5455 99.6667 60.5455 104.545C60.5455 108.545 59.3939 112.121 57.0909 115.273C54.8182 118.424 51.6364 120.909 47.5455 122.727C43.4545 124.545 38.697 125.455 33.2727 125.455C26.1515 125.455 20.2576 123.909 15.5909 120.818C10.9242 117.727 7.9697 113.212 6.72727 107.273L16.9091 104.727C17.8788 108.485 19.7121 111.303 22.4091 113.182C25.1364 115.061 28.697 116 33.0909 116C38.0909 116 42.0606 114.939 45 112.818C47.9697 110.667 49.4545 108.091 49.4545 105.091C49.4545 102.667 48.6061 100.636 46.9091 99C45.2121 97.3333 42.6061 96.0909 39.0909 95.2727L27.4545 92.5455C21.0606 91.0303 16.3636 88.6818 13.3636 85.5C10.3939 82.2879 8.90909 78.2727 8.90909 73.4545C8.90909 69.5151 10.0152 66.0303 12.2273 63C14.4697 59.9697 17.5152 57.5909 21.3636 55.8636C25.2424 54.1364 29.6364 53.2727 34.5455 53.2727C41.4545 53.2727 46.8788 54.7879 50.8182 57.8182C54.7879 60.8485 57.6061 64.8485 59.2727 69.8182ZM87.4205 82V124H76.6932V30.9091H87.4205V65.0909H88.3295C89.9659 61.4848 92.4205 58.6212 95.6932 56.5C98.9962 54.3485 103.39 53.2727 108.875 53.2727C113.633 53.2727 117.799 54.2273 121.375 56.1364C124.951 58.0151 127.723 60.9091 129.693 64.8182C131.693 68.697 132.693 73.6364 132.693 79.6364V124H121.966V80.3636C121.966 74.8182 120.527 70.5303 117.648 67.5C114.799 64.4394 110.845 62.9091 105.784 62.9091C102.269 62.9091 99.1174 63.6515 96.3295 65.1364C93.572 66.6212 91.3902 68.7879 89.7841 71.6364C88.2083 74.4848 87.4205 77.9394 87.4205 82ZM180.682 125.455C174.379 125.455 168.848 123.955 164.091 120.955C159.364 117.955 155.667 113.758 153 108.364C150.364 102.97 149.045 96.6667 149.045 89.4545C149.045 82.1818 150.364 75.8333 153 70.4091C155.667 64.9848 159.364 60.7727 164.091 57.7727C168.848 54.7727 174.379 53.2727 180.682 53.2727C186.985 53.2727 192.5 54.7727 197.227 57.7727C201.985 60.7727 205.682 64.9848 208.318 70.4091C210.985 75.8333 212.318 82.1818 212.318 89.4545C212.318 96.6667 210.985 102.97 208.318 108.364C205.682 113.758 201.985 117.955 197.227 120.955C192.5 123.955 186.985 125.455 180.682 125.455ZM180.682 115.818C185.47 115.818 189.409 114.591 192.5 112.136C195.591 109.682 197.879 106.455 199.364 102.455C200.848 98.4545 201.591 94.1212 201.591 89.4545C201.591 84.7879 200.848 80.4394 199.364 76.4091C197.879 72.3788 195.591 69.1212 192.5 66.6364C189.409 64.1515 185.47 62.9091 180.682 62.9091C175.894 62.9091 171.955 64.1515 168.864 66.6364C165.773 69.1212 163.485 72.3788 162 76.4091C160.515 80.4394 159.773 84.7879 159.773 89.4545C159.773 94.1212 160.515 98.4545 162 102.455C163.485 106.455 165.773 109.682 168.864 112.136C171.955 114.591 175.894 115.818 180.682 115.818ZM228.693 150.182V54.1818H239.057V65.2727H240.33C241.117 64.0606 242.208 62.5151 243.602 60.6364C245.027 58.7273 247.057 57.0303 249.693 55.5455C252.36 54.0303 255.966 53.2727 260.511 53.2727C266.39 53.2727 271.572 54.7424 276.057 57.6818C280.542 60.6212 284.042 64.7879 286.557 70.1818C289.072 75.5758 290.33 81.9394 290.33 89.2727C290.33 96.6667 289.072 103.076 286.557 108.5C284.042 113.894 280.557 118.076 276.102 121.045C271.648 123.985 266.511 125.455 260.693 125.455C256.208 125.455 252.617 124.712 249.92 123.227C247.223 121.712 245.148 120 243.693 118.091C242.239 116.152 241.117 114.545 240.33 113.273H239.42V150.182H228.693ZM239.239 89.0909C239.239 94.3636 240.011 99.0152 241.557 103.045C243.102 107.045 245.36 110.182 248.33 112.455C251.299 114.697 254.936 115.818 259.239 115.818C263.723 115.818 267.466 114.636 270.466 112.273C273.496 109.879 275.769 106.667 277.284 102.636C278.83 98.5758 279.602 94.0606 279.602 89.0909C279.602 84.1818 278.845 79.7576 277.33 75.8182C275.845 71.8485 273.587 68.7121 270.557 66.4091C267.557 64.0758 263.784 62.9091 259.239 62.9091C254.875 62.9091 251.208 64.0151 248.239 66.2273C245.269 68.4091 243.027 71.4697 241.511 75.4091C239.996 79.3182 239.239 83.8788 239.239 89.0909ZM314.511 124.727C312.269 124.727 310.345 123.924 308.739 122.318C307.133 120.712 306.33 118.788 306.33 116.545C306.33 114.303 307.133 112.379 308.739 110.773C310.345 109.167 312.269 108.364 314.511 108.364C316.754 108.364 318.678 109.167 320.284 110.773C321.89 112.379 322.693 114.303 322.693 116.545C322.693 118.03 322.314 119.394 321.557 120.636C320.83 121.879 319.845 122.879 318.602 123.636C317.39 124.364 316.027 124.727 314.511 124.727ZM370.307 125.455C363.761 125.455 358.125 123.909 353.398 120.818C348.67 117.727 345.034 113.47 342.489 108.045C339.943 102.621 338.67 96.4242 338.67 89.4545C338.67 82.3636 339.973 76.1061 342.58 70.6818C345.216 65.2273 348.883 60.9697 353.58 57.9091C358.307 54.8182 363.822 53.2727 370.125 53.2727C375.034 53.2727 379.458 54.1818 383.398 56C387.337 57.8182 390.564 60.3636 393.08 63.6364C395.595 66.9091 397.155 70.7273 397.761 75.0909H387.034C386.216 71.9091 384.398 69.0909 381.58 66.6364C378.792 64.1515 375.034 62.9091 370.307 62.9091C366.125 62.9091 362.458 64 359.307 66.1818C356.186 68.3333 353.746 71.3788 351.989 75.3182C350.261 79.2273 349.398 83.8182 349.398 89.0909C349.398 94.4848 350.246 99.1818 351.943 103.182C353.67 107.182 356.095 110.288 359.216 112.5C362.367 114.712 366.064 115.818 370.307 115.818C373.095 115.818 375.625 115.333 377.898 114.364C380.17 113.394 382.095 112 383.67 110.182C385.246 108.364 386.367 106.182 387.034 103.636H397.761C397.155 107.758 395.655 111.47 393.261 114.773C390.898 118.045 387.761 120.652 383.852 122.591C379.973 124.5 375.458 125.455 370.307 125.455ZM441.807 125.455C435.504 125.455 429.973 123.955 425.216 120.955C420.489 117.955 416.792 113.758 414.125 108.364C411.489 102.97 410.17 96.6667 410.17 89.4545C410.17 82.1818 411.489 75.8333 414.125 70.4091C416.792 64.9848 420.489 60.7727 425.216 57.7727C429.973 54.7727 435.504 53.2727 441.807 53.2727C448.11 53.2727 453.625 54.7727 458.352 57.7727C463.11 60.7727 466.807 64.9848 469.443 70.4091C472.11 75.8333 473.443 82.1818 473.443 89.4545C473.443 96.6667 472.11 102.97 469.443 108.364C466.807 113.758 463.11 117.955 458.352 120.955C453.625 123.955 448.11 125.455 441.807 125.455ZM441.807 115.818C446.595 115.818 450.534 114.591 453.625 112.136C456.716 109.682 459.004 106.455 460.489 102.455C461.973 98.4545 462.716 94.1212 462.716 89.4545C462.716 84.7879 461.973 80.4394 460.489 76.4091C459.004 72.3788 456.716 69.1212 453.625 66.6364C450.534 64.1515 446.595 62.9091 441.807 62.9091C437.019 62.9091 433.08 64.1515 429.989 66.6364C426.898 69.1212 424.61 72.3788 423.125 76.4091C421.64 80.4394 420.898 84.7879 420.898 89.4545C420.898 94.1212 421.64 98.4545 423.125 102.455C424.61 106.455 426.898 109.682 429.989 112.136C433.08 114.591 437.019 115.818 441.807 115.818Z" fill="white"/>
<line x1="-4.37114e-07" y1="155" x2="480" y2="155" stroke="white" stroke-width="10"/>
<line x1="-4.37114e-07" y1="26.0001" x2="480" y2="26" stroke="white" stroke-width="10"/>
</svg>
